# xmcd
#
# Track frame offsets: 
#        150
#        15034
#        30599
#        43626
#        65828
#        77759
#        97027
#        116432
#        135089
#        153889
#
# Disc length: 2472 seconds
#
# Revision: 0
# Processed by: cddbd v1.5.2PL0 Copyright (c) Steve Scherf et al.
# Submitted via: ExactAudioCopyFreeDBPlugin 1.0
#
DISCID=6b09a60a
DTITLE=Long John Baldry - it aint easy
DYEAR=1900
DGENRE=
TTITLE0=intro conditional discharge
TTITLE1=the king of rock n roll
TTITLE2=black girl
TTITLE3=it aint easy
TTITLE4=morning morning
TTITLE5=im ready
TTITLE6=lets burn down the cornfield
TTITLE7=mr rubin
TTITLE8=rock me when hes gone
TTITLE9=flying
EXTD=
EXTT0=
EXTT1=
EXTT2=
EXTT3=
EXTT4=
EXTT5=
EXTT6=
EXTT7=
EXTT8=
EXTT9=
PLAYORDER=
